<svg xmlns="http://www.w3.org/2000/svg" xmlns:xlink="http://www.w3.org/1999/xlink" width="200" zoomAndPan="magnify" viewBox="0 0 150 149.999998" height="200" preserveAspectRatio="xMidYMid meet" version="1.0"><defs><g/></defs><rect x="-15" width="180" fill="#ffffff" y="-15" height="179.999997" fill-opacity="1"/><rect x="-15" width="180" fill="#2b2d42" y="-15" height="179.999997" fill-opacity="1"/><g fill="#8d99ae" fill-opacity="1"><g transform="translate(49.21875, 123.149991)"><g><path d="M 32.96875 -61.34375 L 32.96875 -26.640625 C 32.96875 -23.566406 33.207031 -21.238281 33.6875 -19.65625 C 34.175781 -18.070312 35.039062 -16.96875 36.28125 -16.34375 C 37.53125 -15.71875 39.40625 -15.40625 41.90625 -15.40625 C 44.394531 -15.40625 46.457031 -15.597656 48.09375 -15.984375 L 48.09375 0.140625 C 44.738281 0.617188 41.378906 0.859375 38.015625 0.859375 C 31.390625 0.859375 26.226562 0.117188 22.53125 -1.359375 C 18.832031 -2.847656 16.164062 -5.441406 14.53125 -9.140625 C 12.90625 -12.835938 12.09375 -18.09375 12.09375 -24.90625 L 12.09375 -61.34375 L 1.875 -61.34375 L 1.875 -77.765625 L 12.09375 -77.765625 L 12.09375 -96.1875 L 32.96875 -96.1875 L 32.96875 -77.765625 L 49.109375 -77.765625 L 49.109375 -61.34375 Z M 32.96875 -61.34375 "/></g></g></g></svg>